/* XPM */
static char *_5e68a035d30447cd29205edc3e9a947[] = {
/* columns rows colors chars-per-pixel */
"16 16 66 1 ",
"  c #EE672E",
". c #EF672F",
"X c #EF6830",
"o c #EF6931",
"O c #EF6A32",
"+ c #EF6A33",
"@ c #EF6B33",
"# c #EF6B34",
"$ c #EF6C35",
"% c #EF6D37",
"& c #EF6E38",
"* c #EF6E39",
"= c #EF6F39",
"- c #EF6F3A",
"; c #EF703A",
": c #EF703B",
"> c #F0703B",
", c #F0713C",
"< c #F0713D",
"1 c #F0723D",
"2 c #F0723E",
"3 c #F0733E",
"4 c #F0733F",
"5 c #F07440",
"6 c #F07441",
"7 c #F07542",
"8 c #F07643",
"9 c #F07745",
"0 c #F07947",
"q c #F17C4B",
"w c #F17C4C",
"e c #F17D4D",
"r c #F18051",
"t c #F28558",
"y c #F2895D",
"u c #F28B60",
"i c #F28C61",
"p c #F28D62",
"a c #F39169",
"s c #F39269",
"d c #F3946D",
"f c #F49872",
"g c #F49A74",
"h c #F4A07D",
"j c #F5A482",
"k c #F5A584",
"l c #F6AF92",
"z c #FBDBCD",
"x c #FCE3D9",
"c c #FCE6DD",
"v c #FCE9E1",
"b c #FCEBE3",
"n c #FCEBE4",
"m c #FDECE5",
"M c #FDEDE7",
"N c #FDEEE7",
"B c #FDEEE8",
"V c #FDEFE9",
"C c #FDEFEA",
"Z c #FDF2ED",
"A c #FEF8F6",
"S c #FEF9F7",
"D c #FEFCFC",
"F c #FEFEFE",
"G c gray100",
"H c None",
/* pixels */
"HHHHH,,,,,,HHHHH",
"HHH:,,5,:,,:,HHH",
"HH:,,X -,+-,:,HH",
"H,,:,ghw%a,%,:,H",
"H,,-8VGytGnp%,,H",
",,,-8mGpzGVr%,,,",
",,,-,VGvGGa ,:,,",
",,,-8VGDGl 5,,,,",
",,,-5CGGAw%,,,,,",
",,,-5mGSGc5+,,,,",
",,,-5VGjbGxq-,,,",
"H,,-5VGquGZp%,,H",
"H,,,,gj0+d9+,-,H",
"HH-,:+ -,+-,,,HH",
"HHH,,,4,:,,,,HHH",
"HHHHH,,,,,,HHHHH"
};
