/* XPM */
static char *d3fc4693c4ac4bbbd68666e0f8abe658[] = {
/* columns rows colors chars-per-pixel */
"64 64 161 2 ",
"   c #EE6126",
".  c #EE652C",
"X  c #EE662C",
"o  c #EE662D",
"O  c #EE662E",
"+  c #EE672E",
"@  c #EE672F",
"#  c #EF672F",
"$  c #EF682F",
"%  c #EF6830",
"&  c #EF6931",
"*  c #EF6932",
"=  c #EF6A32",
"-  c #EF6A33",
";  c #EF6B33",
":  c #EF6B34",
">  c #EF6C35",
",  c #EF6C36",
"<  c #EF6D36",
"1  c #EF6D37",
"2  c #EF6E37",
"3  c #EF6E38",
"4  c #EF6E39",
"5  c #EF6F39",
"6  c #EF6F3A",
"7  c #EF703A",
"8  c #EF703B",
"9  c #EF713C",
"0  c #EF723E",
"q  c #F0703B",
"w  c #F0713B",
"e  c #F0713C",
"r  c #F0713D",
"t  c #F0723D",
"y  c #F0723E",
"u  c #F0733E",
"i  c #F0733F",
"p  c #F07340",
"a  c #F07440",
"s  c #F07441",
"d  c #F07541",
"f  c #F07542",
"g  c #F07644",
"h  c #F07A49",
"j  c #F07B4A",
"k  c #F07C4B",
"l  c #F17D4C",
"z  c #F17D4D",
"x  c #F17E4E",
"c  c #F18152",
"v  c #F18355",
"b  c #F18457",
"n  c #F2875B",
"m  c #F2895E",
"M  c #F28B5F",
"N  c #F28B60",
"B  c #F28C62",
"V  c #F28E64",
"C  c #F39269",
"Z  c #F3936B",
"A  c #F3946C",
"S  c #F3946D",
"D  c #F3956E",
"F  c #F39770",
"G  c #F39872",
"H  c #F49A75",
"J  c #F49C78",
"K  c #F49D79",
"L  c #F49E79",
"P  c #F4A07D",
"I  c #F5A382",
"U  c #F5A584",
"Y  c #F5A888",
"T  c #F5AA8B",
"R  c #F5AC8D",
"E  c #F6B092",
"W  c #F6B194",
"Q  c #F6B296",
"!  c #F6B498",
"~  c #F6B499",
"^  c #F7B59A",
"/  c #F6B69A",
"(  c #F7B89E",
")  c #F7BBA1",
"_  c #F7BCA3",
"`  c #F7BCA4",
"'  c #F7BDA4",
"]  c #F7BDA5",
"[  c #F7BFA8",
"{  c #F7C0A9",
"}  c #F8C1AB",
"|  c #F8C6B1",
" . c #F9CAB6",
".. c #F9CCB9",
"X. c #F9CCBA",
"o. c #F9CEBC",
"O. c #F9CFBD",
"+. c #F9CFBE",
"@. c #F9D0BF",
"#. c #F9D1C0",
"$. c #F9D1C1",
"%. c #FAD2C1",
"&. c #FAD2C2",
"*. c #FAD3C2",
"=. c #FAD3C3",
"-. c #FAD4C4",
";. c #FAD5C5",
":. c #FAD5C6",
">. c #FAD6C6",
",. c #FAD6C7",
"<. c #FAD7C8",
"1. c #FAD7C9",
"2. c #FAD8C9",
"3. c #FAD8CA",
"4. c #FAD9CB",
"5. c #FADACC",
"6. c #FADACD",
"7. c #FADBCD",
"8. c #FADBCE",
"9. c #FBDBCE",
"0. c #FBDCCF",
"q. c #FBDDD1",
"w. c #FBDED3",
"e. c #FBDFD3",
"r. c #FBDFD4",
"t. c #FBE1D6",
"y. c #FBE3D9",
"u. c #FBE4DB",
"i. c #FCE5DB",
"p. c #FCE6DC",
"a. c #FCE6DE",
"s. c #FCEAE2",
"d. c #FCEBE3",
"f. c #FCEBE4",
"g. c #FCECE6",
"h. c #FCEDE6",
"j. c #FDEEE8",
"k. c #FDF0EA",
"l. c #FDF1EB",
"z. c #FDF1ED",
"x. c #FDF2EE",
"c. c #FDF3EF",
"v. c #FDF4F1",
"b. c #FDF5F2",
"n. c #FEF8F5",
"m. c #FEF8F6",
"M. c #FEFAF8",
"N. c #FEFBF9",
"B. c #FEFBFA",
"V. c #FEFCFB",
"C. c #FEFCFC",
"Z. c #FEFDFC",
"A. c #FEFDFD",
"S. c #FEFEFD",
"D. c #FEFEFE",
"F. c #FFFEFE",
"G. c #FEFFFE",
"H. c #FFFFFE",
"J. c #FEFFFF",
"K. c gray100",
"L. c None",
/* pixels */
"L.L.L.L.L.L.L.L.L.L.L.L.L.L.L.L.L.L.L.L.L.L.L.L.L.L.e e e e e e e e e e e e L.L.L.L.L.L.L.L.L.L.L.L.L.L.L.L.L.L.L.L.L.L.L.L.L.L.",
"L.L.L.L.L.L.L.L.L.L.L.L.L.L.L.L.L.L.L.L.L.L.e e e e e e e e e e e e e e e e e e e e L.L.L.L.L.L.L.L.L.L.L.L.L.L.L.L.L.L.L.L.L.L.",
"L.L.L.L.L.L.L.L.L.L.L.L.L.L.L.L.L.L.L.L.e e e e e e e e e e e e e e e e e e e e e e e e L.L.L.L.L.L.L.L.L.L.L.L.L.L.L.L.L.L.L.L.",
"L.L.L.L.L.L.L.L.L.L.L.L.L.L.L.L.L.e e e e e e e e e e e e e e e e e e e e e e e e e e e e e e L.L.L.L.L.L.L.L.L.L.L.L.L.L.L.L.L.",
"L.L.L.L.L.L.L.L.L.L.L.L.L.L.L.L.e e e e e e e e e e e e e e e e e e e e e e e e e e e e e e e e L.L.L.L.L.L.L.L.L.L.L.L.L.L.L.L.",
"L.L.L.L.L.L.L.L.L.L.L.L.L.L.e e e e e e e e e e e e e e e e e e e e e e e e e e e e e e e e e e e e L.L.L.L.L.L.L.L.L.L.L.L.L.L.",
"L.L.L.L.L.L.L.L.L.L.L.L.L.e e e e e e e e e e e e e e e e e e e e e e e e e e e e e e e e e e e e e e L.L.L.L.L.L.L.L.L.L.L.L.L.",
"L.L.L.L.L.L.L.L.L.L.L.e e e e e e e e e e e e e e e e e e e e e e e e e e e e e e e e e e e e e e e e e e L.L.L.L.L.L.L.L.L.L.L.",
"L.L.L.L.L.L.L.L.L.L.e e e e e e e e e e e e e e e e e e e e e e e e e e e e e e e e e e e e e e e e e e e e L.L.L.L.L.L.L.L.L.L.",
"L.L.L.L.L.L.L.L.L.e e e e e e e e e e e e e e e e e e e e e e e e e e e e e e e e e e e e e e e e e e e e e e L.L.L.L.L.L.L.L.L.",
"L.L.L.L.L.L.L.L.e e e e e e e e e e e e e e e e e e e e e e e e e e e e e e e e e e e e e e e e e e e e e e e e L.L.L.L.L.L.L.L.",
"L.L.L.L.L.L.L.e e e e e e e e e e e e e e e e e e e e e e e e e e e e e e e e e e e e e e e e e e e e e e e e e e L.L.L.L.L.L.L.",
"L.L.L.L.L.L.L.e e e e e e e e e e e 0 e e e 0 0 e e p e e e e e e e e q e e e 0 q e e e e e e e e e e e e e e e e L.L.L.L.L.L.L.",
"L.L.L.L.L.L.e e e e e e e e e e e 6 q 6 = = % = = = = = = 7 e e e e q 6 e = = 0 e 7 q e e e e e e e e e e e e e e e L.L.L.L.L.L.",
"L.L.L.L.L.e e e e e e e e e e e e e 0 e S F D F F F F F C e 7 e e e 0 e > ~ S O : e e 0 e q e e e e e e e e e e e e e L.L.L.L.L.",
"L.L.L.L.L.e e e e e e e e e e e e e 6 d j.K.K.K.K.K.K.K.j.d 6 e e 7 e = S K.K.+.B = : e e 0 e e e e e e e e e e e e e L.L.L.L.L.",
"L.L.L.L.e e e e e e e e e e e e e e e 7 i.K.V.K.A.A.V.K.h.a 6 q 7 0 7 6 t.K.B.K.K.O.N O : e 6 q e e e e e e e e e e e e L.L.L.L.",
"L.L.L.e e e e e e e e e e e e e e e e > r.K.B.K.A.K.A.K.h.0 6 q 7 0 O R K.A.A.B.B.K.K.X.m : e q e e e e e e e e e e e e e L.L.L.",
"L.L.L.e e e e e e e e e e e e e e e e > 7.K.V.K.K.K.V.K.a.7 0 0 0 > x b.K.A.A.K.K.V.K.K.K./ = 0 e e e e e e e e e e e e e L.L.L.",
"L.L.L.e e e e e e e e e e e e e e e e : 1.K.K.K.K.K.V.K.w.> 0 6 e = X.K.A.K.K.K.K.K.K.B.K.' = e e e e e e e e e e e e e e L.L.L.",
"L.L.e e e e e e e e e e e e e e e e e = >.K.V.K.K.K.V.K.>.= 0 a $ L K.K.A.K.K.K.K.K.C.K.u.e 0 e e e e e e e e e e e e e e e L.L.",
"L.L.e e e e e e e e e e e e e e e e e = >.K.V.K.K.K.K.K.#.= a > h k.K.V.K.K.K.K.K.A.A.B.N = e 8 e e e e e e e e e e e e e e L.L.",
"L.e e e e e e e e e e e e e e e e e e = $.K.K.K.K.K.K.K.$.= 0 : $.K.K.K.K.K.K.A.K.A.K.W O d 7 e e e e e e e e e e e e e e e e L.",
"L.e e e e e e e e e e e e e e e e e 0 = $.K.V.K.K.K.V.K.7.> + ' K.B.K.K.K.K.K.K.A.K.:.: e e e e e e e e e e e e e e e e e e e L.",
"L.e e e e e e e e e e e e e e e e e p = $.K.K.K.K.K.K.K.d.o E K.K.K.V.K.K.K.K.V.K.x.l 6 e 7 e e e e e e e e e e e e e e e e e L.",
"L.e e e e e e e e e e e e e e e e e e = $.K.V.K.K.K.K.K.b.{ A.A.K.K.K.K.K.K.K.K.K.H $ e 0 e e e e e e e e e e e e e e e e e e L.",
"e e e e e e e e e e e e e e e e e e e = >.K.V.K.K.K.K.K.A.A.B.K.K.K.K.K.A.K.B.K._ O p 6 q e e e e e e e e e e e e e e e e e e e ",
"e e e e e e e e e e e e e e e e e e e : 1.K.V.K.K.K.V.K.A.A.A.K.V.K.K.K.K.V.K.3.> e e q q e e e e e e e e e e e e e e e e e e e ",
"e e e e e e e e e e e e e e e e e e e : 3.K.K.K.K.K.K.K.K.K.K.K.K.K.K.K.A.K.l.x > e 0 e e e e e e e e e e e e e e e e e e e e e ",
"e e e e e e e e e e e e e e e e e e e : 3.K.V.K.K.K.K.K.K.K.K.K.K.K.K.K.A.A.D $ e 0 e e e e e e e e e e e e e e e e e e e e e e ",
"e e e e e e e e e e e e e e e e e e e : 3.K.K.K.K.K.K.K.K.K.K.K.K.K.K.V.K.W o 0 7 e e e e e e e e e e e e e e e e e e e e e e e ",
"e e e e e e e e e e e e e e e e e e e > 7.K.V.K.K.K.K.K.K.K.K.K.K.K.V.K.+.= 0 0 e e e e e e e e e e e e e e e e e e e e e e e e ",
"e e e e e e e e e e e e e e e e e e e : 7.K.V.K.K.K.K.K.K.K.K.K.K.B.K.u.a 6 0 0 e e e e e e e e e e e e e e e e e e e e e e e e ",
"e e e e e e e e e e e e e e e e e e e : 7.K.V.K.K.K.K.K.K.K.K.K.K.B.K.'   a 7 7 e e e e e e e e e e e e e e e e e e e e e e e e ",
"e e e e e e e e e e e e e e e e e e 0 = 3.K.K.K.K.K.K.K.K.K.K.K.K.K.A.K.U O p 7 e e e e e e e e e e e e e e e e e e e e e e e e ",
"e e e e e e e e e e e e e e e e e e 0 = 3.K.V.K.K.K.K.K.K.K.K.K.K.K.A.K.K.J O p 6 e e e e e e e e e e e e e e e e e e e e e e e ",
"e e e e e e e e e e e e e e e e e e e ; 3.K.K.K.K.K.K.K.K.K.K.K.K.K.K.A.K.B.D O p 7 e e e e e e e e e e e e e e e e e e e e e e ",
"e e e e e e e e e e e e e e e e e e e = $.K.V.K.K.K.K.K.A.K.K.K.K.K.K.K.V.K.m.V $ p 0 q e e e e e e e e e e e e e e e e e e e e ",
"L.e e e e e e e e e e e e e e e e e e = $.K.V.K.K.K.K.K.K.K.V.K.K.K.K.A.K.K.K.b.n = e 7 e e e e e e e e e e e e e e e e e e e L.",
"L.e e e e e e e e e e e e e e e e e e = #.K.V.K.K.K.V.K.c.u.K.K.K.V.K.K.A.K.V.K.k.c : d 7 e e e e e e e e e e e e e e e e e e L.",
"L.e e e e e e e e e e e e e e e e e p = $.K.K.K.K.K.B.K.t.p 3.K.V.K.K.K.K.K.K.B.K.d.k : i 7 e e e e e e e e e e e e e e e e e L.",
"L.e e e e e e e e e e e e e e e e e e = >.K.V.K.K.K.K.K.w.= 0 1.K.V.K.K.K.K.A.K.V.K.u.g 6 e 7 e e e e e e e e e e e e e e e e L.",
"L.L.e e e e e e e e e e e e e e e e p = >.K.V.K.K.K.V.K.@.= 7 6 3.K.B.K.K.K.K.K.K.V.K.w.0 > e 6 e e e e e e e e e e e e e e L.L.",
"L.L.e e e e e e e e e e e e e e e e e : >.K.K.K.K.K.K.K. .O a 6 0 t.K.V.K.V.K.K.K.K.V.K.1.6 6 e q e e e e e e e e e e e e e L.L.",
"L.L.L.e e e e e e e e e e e e e e e 0 = >.K.K.K.K.K.B.K.} O i e > k h.K.K.K.K.K.K.K.K.B.K.X.: 0 e e e e e e e e e e e e e L.L.L.",
"L.L.L.e e e e e e e e e e e e e e q 0 = $.K.V.K.K.K.B.K.' O d 0 0 = B B.K.K.K.V.K.B.A.K.A.' : 0 e e e e e e e e e e e e e L.L.L.",
"L.L.L.e e e e e e e e e e e e e e e 0 = O.K.B.K.K.K.V.K._ O e e 7 i X Y K.V.K.K.A.A.K.6.M = 7 6 q e e e e e e e e e e e e L.L.L.",
"L.L.L.L.e e e e e e e e e e e e e e 0 % ..K.B.K.V.B.B.K._ O d e 0 0 e = X.K.B.K.K.h.P = = 0 7 0 e e e e e e e e e e e e L.L.L.L.",
"L.L.L.L.L.e e e e e e e e e e e e e e $ | K.B.K.K.K.B.K.` O e e e 7 e > h x.K.m.( p = e e 7 e e e e e e e e e e e e e L.L.L.L.L.",
"L.L.L.L.L.e e e e e e e e e e e e e e 6 b C S L T / / I l 6 e e e e 0 i = H X.v O 6 e e 0 e e e e e e e e e e e e e e L.L.L.L.L.",
"L.L.L.L.L.L.e e e e e e e e e e e e 7 q > = = % $ O O O 6 q 0 e e e e 7 q > O : e e 6 e e e e e e e e e e e e e e e L.L.L.L.L.L.",
"L.L.L.L.L.L.L.e e e e e e e e e e e e 0 0 e e p e e d e e 7 e e e e e e 7 e d e 0 e e e e e e e e e e e e e e e e L.L.L.L.L.L.L.",
"L.L.L.L.L.L.L.e e e e e e e e e e e e e e e e e e e e e e e e e e e e e e e e q e e e e e e e e e e e e e e e e e L.L.L.L.L.L.L.",
"L.L.L.L.L.L.L.L.e e e e e e e e e e e e e e e e e e e e e e e e e e e e e e e e e e e e e e e e e e e e e e e e L.L.L.L.L.L.L.L.",
"L.L.L.L.L.L.L.L.L.e e e e e e e e e e e e e e e e e e e e e e e e e e e e e e e e e e e e e e e e e e e e e e L.L.L.L.L.L.L.L.L.",
"L.L.L.L.L.L.L.L.L.L.e e e e e e e e e e e e e e e e e e e e e e e e e e e e e e e e e e e e e e e e e e e e L.L.L.L.L.L.L.L.L.L.",
"L.L.L.L.L.L.L.L.L.L.L.e e e e e e e e e e e e e e e e e e e e e e e e e e e e e e e e e e e e e e e e e e L.L.L.L.L.L.L.L.L.L.L.",
"L.L.L.L.L.L.L.L.L.L.L.L.L.e e e e e e e e e e e e e e e e e e e e e e e e e e e e e e e e e e e e e e L.L.L.L.L.L.L.L.L.L.L.L.L.",
"L.L.L.L.L.L.L.L.L.L.L.L.L.L.e e e e e e e e e e e e e e e e e e e e e e e e e e e e e e e e e e e e L.L.L.L.L.L.L.L.L.L.L.L.L.L.",
"L.L.L.L.L.L.L.L.L.L.L.L.L.L.L.L.e e e e e e e e e e e e e e e e e e e e e e e e e e e e e e e e L.L.L.L.L.L.L.L.L.L.L.L.L.L.L.L.",
"L.L.L.L.L.L.L.L.L.L.L.L.L.L.L.L.L.e e e e e e e e e e e e e e e e e e e e e e e e e e e e e e L.L.L.L.L.L.L.L.L.L.L.L.L.L.L.L.L.",
"L.L.L.L.L.L.L.L.L.L.L.L.L.L.L.L.L.L.L.L.e e e e e e e e e e e e e e e e e e e e e e e e L.L.L.L.L.L.L.L.L.L.L.L.L.L.L.L.L.L.L.L.",
"L.L.L.L.L.L.L.L.L.L.L.L.L.L.L.L.L.L.L.L.L.L.e e e e e e e e e e e e e e e e e e e e L.L.L.L.L.L.L.L.L.L.L.L.L.L.L.L.L.L.L.L.L.L.",
"L.L.L.L.L.L.L.L.L.L.L.L.L.L.L.L.L.L.L.L.L.L.L.L.L.L.e e e e e e e e e e e e L.L.L.L.L.L.L.L.L.L.L.L.L.L.L.L.L.L.L.L.L.L.L.L.L.L."
};
