/* XPM */
static char *dcc85f125ae14518af06b32626e4861e[] = {
/* columns rows colors chars-per-pixel */
"32 32 114 2 ",
"   c #ED5D20",
".  c #EE6025",
"X  c #EE652C",
"o  c #EE662D",
"O  c #EE672E",
"+  c #EE672F",
"@  c #EF672F",
"#  c #EF682F",
"$  c #EF6830",
"%  c #EF6931",
"&  c #EF6A32",
"*  c #EF6A33",
"=  c #EF6B34",
"-  c #EF6B35",
";  c #EF6C35",
":  c #EF6C36",
">  c #EF6D37",
",  c #EF6E38",
"<  c #EF6E39",
"1  c #EF6F39",
"2  c #EF6F3A",
"3  c #EF703A",
"4  c #EF703B",
"5  c #EF713C",
"6  c #F0703B",
"7  c #F0713B",
"8  c #F0713C",
"9  c #F0713D",
"0  c #F0723D",
"q  c #F0723E",
"w  c #F0733E",
"e  c #F0733F",
"r  c #F07340",
"t  c #F07440",
"y  c #F07441",
"u  c #F07541",
"i  c #F07542",
"p  c #F07744",
"a  c #F07846",
"s  c #F07A48",
"d  c #F17C4C",
"f  c #F18051",
"g  c #F18355",
"h  c #F2875A",
"j  c #F39269",
"k  c #F3946D",
"l  c #F49771",
"z  c #F49973",
"x  c #F49A74",
"c  c #F49B76",
"v  c #F49B77",
"b  c #F49C77",
"n  c #F49E7A",
"m  c #F4A07D",
"M  c #F4A17E",
"N  c #F5A482",
"B  c #F5A584",
"V  c #F5A98A",
"C  c #F5AA8A",
"Z  c #F6AB8C",
"A  c #F6AE90",
"S  c #F6B194",
"D  c #F6B295",
"F  c #F6B498",
"G  c #F7BAA0",
"H  c #F7BCA4",
"J  c #F7BDA4",
"K  c #F7BDA5",
"L  c #F8BEA6",
"P  c #F8C2AC",
"I  c #F8C5B0",
"U  c #F9C8B4",
"Y  c #F9CCB9",
"T  c #F9CDBB",
"R  c #F9CEBC",
"E  c #F9CFBD",
"W  c #F9D1BF",
"Q  c #FAD6C6",
"!  c #FAD6C7",
"~  c #FAD7C8",
"^  c #FAD7C9",
"/  c #FADACC",
"(  c #FBDBCD",
")  c #FBDFD4",
"_  c #FCE4DA",
"`  c #FCE5DB",
"'  c #FCE5DC",
"]  c #FCE6DC",
"[  c #FCE6DD",
"{  c #FCE7DE",
"}  c #FCE7DF",
"|  c #FCE8DF",
" . c #FCE8E0",
".. c #FCE9E0",
"X. c #FCE9E1",
"o. c #FDEDE7",
"O. c #FDF1EC",
"+. c #FDF2ED",
"@. c #FDF5F2",
"#. c #FEF6F3",
"$. c #FEF7F4",
"%. c #FEF9F7",
"&. c #FEFAF8",
"*. c #FEFBF9",
"=. c #FEFBFA",
"-. c #FEFCFB",
";. c #FEFCFC",
":. c #FEFDFC",
">. c #FEFDFD",
",. c #FEFEFD",
"<. c #FEFEFE",
"1. c #FFFEFE",
"2. c gray100",
"3. c None",
/* pixels */
"3.3.3.3.3.3.3.3.3.3.3.3.8 8 8 8 8 8 8 8 3.3.3.3.3.3.3.3.3.3.3.3.",
"3.3.3.3.3.3.3.3.3.8 8 8 8 8 8 8 8 8 8 8 8 8 8 3.3.3.3.3.3.3.3.3.",
"3.3.3.3.3.3.3.8 8 8 8 8 8 8 8 8 8 8 8 8 8 8 8 8 8 3.3.3.3.3.3.3.",
"3.3.3.3.3.3.8 8 8 8 8 8 8 8 8 8 8 8 8 8 8 8 8 8 8 8 3.3.3.3.3.3.",
"3.3.3.3.3.8 8 8 8 8 8 8 8 8 5 5 8 8 8 8 8 8 8 8 8 8 8 3.3.3.3.3.",
"3.3.3.3.8 8 8 8 2 8 8 t 8 t 5 4 8 2 8 8 8 8 8 8 8 8 8 8 3.3.3.3.",
"3.3.3.8 8 8 8 4 8 5 # + % + ; 4 5 8 : + 2 8 8 5 8 8 8 8 8 3.3.3.",
"3.3.8 8 8 8 8 8 4 t P Y U W v % y + A H t + 2 8 4 8 8 8 8 8 3.3.",
"3.3.8 8 8 8 8 8 2 t o.2.=.2.D + 2 f @.2.O.S a 2 8 8 8 8 8 8 3.3.",
"3.8 8 8 8 8 8 8 4 5 { 2.%.2.C % % T 2.%.2.2.~ - 8 8 8 8 8 8 8 3.",
"3.8 8 8 8 8 8 8 6 2 { 2.=.2.B   M 2.2.2.=.2.v % 8 8 8 8 8 8 8 3.",
"3.8 8 8 8 8 8 8 8 2 ` 2.=.2.v s $.2.2.=.2.H + 8 5 8 8 8 8 8 8 3.",
"8 8 8 8 8 8 8 8 8 2 { 2.=.2.I ) 2.;.;.2.) 4 5 8 8 8 8 8 8 8 8 8 ",
"8 8 8 8 8 8 8 8 4 4 { 2.2.2.;.;.2.2.2.@.g ; 8 5 8 8 8 8 8 8 8 8 ",
"8 8 8 8 8 8 8 8 4 4 | 2.=.2.2.2.;.2.2.n % 5 5 8 8 8 8 8 8 8 8 8 ",
"8 8 8 8 8 8 8 8 4 5 ..2.2.2.2.=.:.2.J + 8 4 8 8 8 8 8 8 8 8 8 8 ",
"8 8 8 8 8 8 8 8 4 5 ..2.;.2.2.;.2...% 5 5 4 8 8 8 8 8 8 8 8 8 8 ",
"8 8 8 8 8 8 8 8 4 5 ..2.2.2.2.2.;.2.C + e 5 8 8 8 8 8 8 8 8 8 8 ",
"8 8 8 8 8 8 8 8 4 4 ' 2.;.2.2.=.;.;.2.N X 5 5 5 8 8 8 8 8 8 8 8 ",
"8 8 8 8 8 8 8 8 5 2 ' 2.;.2.@.2.;.;.2.2.v + r 5 8 8 8 8 8 8 8 8 ",
"3.8 8 8 8 8 8 8 5 2 ' 2.=.2.C L 2.;.:.;.:.k o 5 4 6 8 8 8 8 8 3.",
"3.8 8 8 8 8 8 8 2 5 ' 2.=.2.n . R 2.:.2.2.@.j ; 8 8 8 8 8 8 8 3.",
"3.8 8 8 8 8 8 8 4 4 ' 2.%.2.z # 2 / 2.=.2.2./ ; 8 8 8 8 8 8 8 3.",
"3.3.8 8 8 8 8 8 8 2 _ 2.=.2.z % 2 d +.2.%.G i 4 8 8 8 8 8 8 3.3.",
"3.3.8 8 8 8 8 8 8 2 F R Q ^ h ; t + M ^ g + 2 8 5 8 8 8 8 8 3.3.",
"3.3.3.8 8 8 8 6 4 8 % + % % 2 8 4 8 2 % - e 6 4 8 8 8 8 8 3.3.3.",
"3.3.3.3.8 8 8 8 8 5 8 e 8 e 8 4 6 4 8 8 8 4 8 8 8 8 8 8 3.3.3.3.",
"3.3.3.3.3.8 8 8 8 8 8 8 8 8 8 8 8 6 8 8 6 6 8 8 8 8 8 3.3.3.3.3.",
"3.3.3.3.3.3.8 8 8 8 8 8 8 8 8 8 8 8 8 8 8 8 8 8 8 8 3.3.3.3.3.3.",
"3.3.3.3.3.3.3.8 8 8 8 8 8 8 8 8 8 8 8 8 8 8 8 8 8 3.3.3.3.3.3.3.",
"3.3.3.3.3.3.3.3.3.8 8 8 8 8 8 8 8 8 8 8 8 8 8 3.3.3.3.3.3.3.3.3.",
"3.3.3.3.3.3.3.3.3.3.3.3.8 8 8 8 8 8 8 8 3.3.3.3.3.3.3.3.3.3.3.3."
};
